<?xml version="1.0" encoding="UTF-8" standalone="no"?>
<!-- Created by sixsixfive and published under CC0 v1.0(http://creativecommons.org/publicdomain/zero/1.0/deed.en) on openclipart.org -->

<svg
   version="1.0"
   viewBox="0 0 46.153999 44.9995"
   id="svg1026"
   width="46.153999"
   height="44.9995"
   xmlns="http://www.w3.org/2000/svg"
   xmlns:svg="http://www.w3.org/2000/svg"
   xmlns:rdf="http://www.w3.org/1999/02/22-rdf-syntax-ns#"
   xmlns:cc="http://creativecommons.org/ns#"
   xmlns:dc="http://purl.org/dc/elements/1.1/">
  <defs
     id="defs4">
    <radialGradient
       id="radialGradient2666"
       gradientUnits="userSpaceOnUse"
       cy="45.941002"
       cx="24.377001"
       gradientTransform="matrix(1,0,0,0.14554,0,39.255)"
       r="23.077">
      <stop
         id="stop3478"
         stop-color="#2e3436"
         offset="0" />
      <stop
         id="stop3480"
         stop-color="#2e3436"
         stop-opacity="0"
         offset="1" />
    </radialGradient>
    <linearGradient
       id="linearGradient2904"
       gradientUnits="userSpaceOnUse"
       x2="0"
       y1="4.2188001"
       y2="43.780998">
      <stop
         id="stop3435"
         stop-color="#ffffff"
         stop-opacity=".8"
         offset="0" />
      <stop
         id="stop3437"
         stop-color="#ffffff"
         stop-opacity="0"
         offset="1" />
    </linearGradient>
    <linearGradient
       id="linearGradient2906"
       y2="33.905998"
       gradientUnits="userSpaceOnUse"
       x2="15.298"
       gradientTransform="translate(0.70639,-1.5)"
       y1="-58.012001"
       x1="4.0938001">
      <stop
         id="stop3458"
         stop-color="#eeeeec"
         offset="0" />
      <stop
         id="stop3460"
         stop-color="#eeeeec"
         stop-opacity="0"
         offset="1" />
    </linearGradient>
    <filter
       style="color-interpolation-filters:sRGB"
       id="filter1112"
       x="0"
       y="0"
       width="1"
       height="1">
      <feColorMatrix
         values="0.21 0.72 0.072 0 0 0.21 0.72 0.072 0 0 0.21 0.72 0.072 0 0 0 0 0 1 0 "
         id="feColorMatrix1110" />
    </filter>
  </defs>
  <g
     id="layer1"
     style="filter:url(#filter1112)"
     transform="translate(-0.92297,-1.5)">
    <path
       id="path3474"
       opacity="0.8"
       fill="url(#radialGradient2666)"
       d="m 47.454,45.941 a 23.077,3.3586 0 1 1 -46.154,0 23.077,3.3586 0 1 1 46.154,0 z"
       transform="translate(-0.37703,-2.8001)"
       style="fill:url(#radialGradient2666)" />
    <g
       id="g2896"
       transform="translate(-0.70639)">
      <rect
         id="rect2653"
         rx="6"
         height="42"
         width="42"
         y="1.5"
         x="3.7063999"
         fill="#445800" />
      <path
         id="path2659"
         fill="#8bb300"
         d="M 9,4.0938 C 6.2609,4.0938 4.0938,6.2609 4.0938,9 v 30 c 0,2.7391 2.1671,4.9062 4.9062,4.9062 h 30 c 2.7391,0 4.9062,-2.1671 4.9062,-4.9062 V 9 c 0,-2.7391 -2.167,-4.9062 -4.906,-4.9062 h -30 z"
         transform="translate(0.70639,-1.5)" />
      <path
         id="path3070"
         fill="#638000"
         d="m 20.188,9.3125 c -0.14066,-0.00164 -0.27553,0.05678 -0.375,0.15625 -0.09947,0.09947 -0.15789,0.23434 -0.15625,0.375 v 7.5938 h -7.5938 c -0.01853,-9.88e-4 -0.04397,-9.88e-4 -0.0625,0 -0.27136,0.02583 -0.47314,0.2587 -0.46875,0.53125 v 9.0625 c -0.0016,0.14066 0.05678,0.27553 0.15625,0.375 0.09947,0.09947 0.23434,0.15789 0.375,0.15625 h 7.5938 v 7.5938 c -0.0016,0.14066 0.05678,0.27553 0.15625,0.375 0.09947,0.09947 0.23434,0.15789 0.375,0.15625 h 9.0625 c 0.14066,0.0016 0.27553,-0.05678 0.375,-0.15625 0.09947,-0.09947 0.15789,-0.23434 0.15625,-0.375 v -7.5938 h 7.5938 c 0.14066,0.0016 0.27553,-0.05678 0.375,-0.15625 0.09947,-0.09947 0.15789,-0.23434 0.15625,-0.375 v -9.0625 c 0.0016,-0.14066 -0.05678,-0.27553 -0.15625,-0.375 -0.09947,-0.09947 -0.23434,-0.15789 -0.375,-0.15625 h -7.5938 v -7.5938 c 9.87e-4,-0.01853 9.88e-4,-0.043969 0,-0.0625 -0.026,-0.2728 -0.258,-0.4746 -0.531,-0.4702 h -9.0625 z" />
      <path
         id="path3644"
         fill="#eeeeec"
         d="m 20.812,10.438 v 8.1562 h -8.1562 v 7.8125 h 8.1562 v 8.125 h 7.8125 v -8.125 h 8.125 v -7.8125 h -8.125 V 10.438 Z" />
      <path
         id="path3431"
         opacity="0.8"
         d="M 9,4.7188 C 6.5944,4.7188 4.7188,6.5944 4.7188,9 v 30 c 0,2.4056 1.8756,4.2812 4.2812,4.2812 h 30 c 2.4056,0 4.2812,-1.8756 4.2812,-4.2812 V 9 c 0,-2.4056 -1.875,-4.2812 -4.281,-4.2812 h -30 z"
         transform="translate(0.70639,-1.5)"
         stroke-dashoffset="30"
         stroke="url(#linearGradient2904)"
         stroke-linecap="round"
         fill="none"
         style="stroke:url(#linearGradient2904)" />
      <path
         id="path3451"
         opacity="0.6"
         fill="url(#linearGradient2906)"
         d="M 9.7064,2.5938 C 6.9673,2.5938 4.8002,4.7609 4.8002,7.5 v 17.156 c 12.085,-5.133 25.681,-9.569 39.813,-12.531 V 7.5 c 0,-2.7391 -2.1671,-4.9062 -4.9062,-4.9062 h -30 z"
         style="fill:url(#linearGradient2906)" />
    </g>
  </g>
  <metadata
     id="metadata1024">
    <rdf:RDF>
      <cc:Work>
        <dc:format>image/svg+xml</dc:format>
        <dc:type
           rdf:resource="http://purl.org/dc/dcmitype/StillImage" />
        <cc:license
           rdf:resource="http://creativecommons.org/publicdomain/zero/1.0/" />
        <dc:publisher>
          <cc:Agent
             rdf:about="http://openclipart.org/">
            <dc:title>Openclipart</dc:title>
          </cc:Agent>
        </dc:publisher>
      </cc:Work>
      <cc:License
         rdf:about="http://creativecommons.org/publicdomain/zero/1.0/">
        <cc:permits
           rdf:resource="http://creativecommons.org/ns#Reproduction" />
        <cc:permits
           rdf:resource="http://creativecommons.org/ns#Distribution" />
        <cc:permits
           rdf:resource="http://creativecommons.org/ns#DerivativeWorks" />
      </cc:License>
    </rdf:RDF>
  </metadata>
</svg>
