<?xml version="1.0" encoding="UTF-8" standalone="no"?>
<!-- Created with Inkscape (http://www.inkscape.org/) -->

<svg
   width="100mm"
   height="100mm"
   viewBox="0 0 100 100"
   version="1.1"
   id="svg5"
   xmlns="http://www.w3.org/2000/svg"
   xmlns:svg="http://www.w3.org/2000/svg">
  <defs
     id="defs2" />
  <g
     id="layer1"
     style="display:none"
     transform="translate(-20)">
    <circle
       style="fill:#b51419;fill-opacity:0.497113;stroke-width:0.347785"
       id="path3197"
       cx="114"
       cy="114"
       r="114" />
  </g>
  <g
     id="layer2"
     transform="matrix(0.56782334,0,0,0.56782334,-14.731861,-17.712934)">
    <path
       id="path987"
       style="fill:#3edd00;fill-opacity:1;stroke-width:0.621428"
       d="m 116.9715,83.278252 c -0.0414,-36.533158 -0.0414,-36.533158 1.42608,-38.516205 0.80701,-1.090667 2.49188,-2.531225 3.74415,-3.201208 2.1935,-1.17357 3.36763,-1.224419 32.06758,-1.389066 L 184,40.000873 v 36.495231 36.495216 h -28.56931 c -24.01026,0 -29.02102,0.14509 -31.40004,0.90962 -3.07343,0.98761 -5.62812,2.85037 -6.4792,4.72438 -0.29626,0.65234 -0.55724,-15.25384 -0.57995,-35.347068 z m -8.68436,33.576098 c -3.4068,-3.73872 -4.56793,-3.86303 -36.077554,-3.86303 H 44 V 76.495666 40 l 29.139545,0.171338 c 27.632965,0.162558 29.273745,0.232659 31.735585,1.357426 1.42783,0.652363 3.25923,2.092904 4.06979,3.201226 1.47371,2.015104 1.47371,2.015104 1.47371,38.103479 0,19.848611 -0.0733,36.069081 -0.16282,36.045551 -0.0895,-0.0236 -0.97543,-0.93466 -1.96867,-2.02467 z" />
    <path
       style="fill:#3edd00;fill-opacity:1;stroke-width:0.974213"
       d="M 100.82431,186.34149 C 94.320942,179.65825 89,173.81463 89,173.35558 c 0,-0.50544 2.13162,-0.83455 5.405393,-0.83455 h 5.405421 V 154.2605 136 h 14.189136 14.18924 v 18.2605 18.26053 h 5.40538 c 2.97299,0 5.40543,0.31371 5.40543,0.69714 0,1.36679 -23.63842,25.28879 -24.98211,25.28183 -0.75308,-0.005 -6.6902,-5.47525 -13.19358,-12.15851 z"
       id="path409" />
  </g>
</svg>
