<?xml version="1.0" encoding="UTF-8" standalone="no"?>
<!-- Created with Inkscape (http://www.inkscape.org/) -->

<svg
   width="100mm"
   height="100mm"
   viewBox="0 0 100 100"
   version="1.1"
   id="svg5"
   xmlns="http://www.w3.org/2000/svg"
   xmlns:svg="http://www.w3.org/2000/svg">
  <defs
     id="defs2" />
  <g
     id="layer1">
    <circle
       style="fill:#b51419;fill-opacity:0.497113;stroke-width:0.152537"
       id="path3197"
       cx="50"
       cy="50"
       r="50" />
  </g>
  <g
     id="layer2">
    <path
       style="fill:#3edd00;fill-opacity:1;stroke-width:0.292025"
       d="m 46.710526,82.894706 c -1.472609,-2.65196 -2.677473,-4.970759 -2.677473,-5.152908 0,-0.200566 0.482679,-0.331162 1.223986,-0.331162 h 1.223996 v -7.245921 -7.245908 h 3.212961 3.212982 v 7.245908 7.245921 h 1.223987 c 0.673197,0 1.223991,0.124487 1.223991,0.276636 0,0.542351 -5.352636,10.034789 -5.656899,10.032026 -0.170526,-0.0018 -1.514917,-2.172623 -2.987531,-4.824592 z M 51.396382,42.26735 c -0.01943,-17.167838 -0.01943,-17.167838 0.670149,-18.099721 0.379237,-0.512532 1.171,-1.189486 1.759473,-1.504328 1.030781,-0.551489 1.582535,-0.575384 15.069347,-0.652756 l 13.999386,-0.08031 V 39.08025 56.230259 H 69.469316 c -11.283018,0 -13.637702,0.06818 -14.755667,0.427456 -1.444276,0.464101 -2.644785,1.33946 -3.044732,2.220101 -0.139224,0.306548 -0.26186,-7.168158 -0.272535,-16.610466 z m -4.081,15.778246 C 45.714443,56.288675 45.168798,56.230259 30.361648,56.230259 H 17.105263 V 39.080044 21.929825 l 13.693396,0.08051 c 12.985416,0.07639 13.756459,0.109333 14.913337,0.637889 0.670978,0.306561 1.531592,0.983507 1.912491,1.504335 0.692535,0.946948 0.692535,0.946948 0.692535,17.90577 0,9.327359 -0.03443,16.949762 -0.07651,16.938701 -0.04206,-0.0111 -0.458377,-0.439219 -0.925127,-0.951439 z"
       id="path409" />
  </g>
</svg>
